# xmcd
#
# Track frame offsets:
#	150
#	1460
#	18165
#	39587
#	58550
#	74547
#	90087
#	113077
#	134625
#	155117
#	175175
#	189907
#
# Disc length: 2821 seconds
#
# Revision: 2
# Processed by: cddbd v1.5.2PL0 Copyright (c) Steve Scherf et al.
# Submitted via: audiograbber 1.83.01
#
DISCID=960b030c
DTITLE=Chris Whitley - Living With The Law
DYEAR=1991
DGENRE=Blues
TTITLE0=Excerpt
TTITLE1=Living With The Law
TTITLE2=Big Sky Country
TTITLE3=Kick The Stones
TTITLE4=Make The Dirt Stick
TTITLE5=Poison Girl
TTITLE6=Dust Radio
TTITLE7=Phone Call From Leavenworth
TTITLE8=I Forget You Every Day
TTITLE9=Long Way Around
TTITLE10=Look What Love Has Done
TTITLE11=Bordertown
EXTD=
EXTT0=
EXTT1=
EXTT2=
EXTT3=
EXTT4=
EXTT5=
EXTT6=
EXTT7=
EXTT8=
EXTT9=
EXTT10=
EXTT11=
PLAYORDER=
